ffmpeg started on 2025-06-15 at 19:49:06
Report written to "D:\Convert\FFMetrics\reports\psnr_report-6.txt"
Log level: 32
Command line:
ffmpeg -hide_banner -nostdin -i "G:\\\xc0\xed\xe8\xec\xe5\\[\xd2\xee\xef]\\\xd1\xea\xe0\xe7\xe0\xed\xe8\xe5 \xee\xe1 \xee\xe1\xf0\xf3\xf7\xe0\xeb\xfc\xed\xfb\xf5 \xea\xee\xeb\xfc\xf6\xe0\xf5\\[DC] Kekkon Yubiwa Monogatari - 06_Telegram_HEVC.mkv" -i "G:\\\xc0\xed\xe8\xec\xe5\\[\xd2\xee\xef]\\\xd1\xea\xe0\xe7\xe0\xed\xe8\xe5 \xee\xe1 \xee\xe1\xf0\xf3\xf7\xe0\xeb\xfc\xed\xfb\xf5 \xea\xee\xeb\xfc\xf6\xe0\xf5\\[DC] Kekkon Yubiwa Monogatari - 06_Telegram.mp4" -lavfi "[0:v]settb=AVTB,setpts=PTS-STARTPTS,format=pix_fmts=yuv420p10,fps=24000/1001,scale=1920:1080:flags=bicubic[main];[1:v]settb=AVTB,setpts=PTS-STARTPTS,format=pix_fmts=yuv420p,fps=24000/1001,scale=1920:1080:flags=bicubic[ref];[main][ref]psnr=eof_action=endall:stats_file='D\\:/Convert/FFMetrics/logs/psnr_logfile-6.txt'" -f null -
Input #0, matroska,webm, from 'G:\Аниме\[Топ]\Сказание об обручальных кольцах\[DC] Kekkon Yubiwa Monogatari - 06_Telegram_HEVC.mkv':
  Metadata:
    COMPATIBLE_BRANDS: isomiso2avc1mp41
    MAJOR_BRAND     : isom
    MINOR_VERSION   : 512
    ENCODER         : Lavf61.7.100
  Duration: 00:23:47.03, start: -0.021000, bitrate: 1263 kb/s
  Stream #0:0: Video: hevc (Main 10), yuv420p10le(tv, bt709, progressive), 1920x1080 [SAR 1:1 DAR 16:9], 23.98 fps, 23.98 tbr, 1k tbn (default)
      Metadata:
        HANDLER_NAME    : VideoHandler
        VENDOR_ID       : [0][0][0][0]
        ENCODER         : Lavc61.19.100 libx265
        BPS             : 1065629
        DURATION        : 00:23:46.549708333
        NUMBER_OF_FRAMES: 34203
        NUMBER_OF_BYTES : 190021565
        _STATISTICS_WRITING_APP: mkvpropedit v66.0.0 ('Josie') 64-bit
        _STATISTICS_WRITING_DATE_UTC: 2025-06-15 14:56:08
        _STATISTICS_TAGS: BPS DURATION NUMBER_OF_FRAMES NUMBER_OF_BYTES
  Stream #0:1: Audio: aac (LC), 48000 Hz, stereo, fltp (default)
      Metadata:
        HANDLER_NAME    : SoundHandler
        VENDOR_ID       : [0][0][0][0]
        ENCODER         : Lavc61.19.100 aac
        BPS             : 194595
        DURATION        : 00:23:47.029000000
        NUMBER_OF_FRAMES: 66893
        NUMBER_OF_BYTES : 34711703
        _STATISTICS_WRITING_APP: mkvpropedit v66.0.0 ('Josie') 64-bit
        _STATISTICS_WRITING_DATE_UTC: 2025-06-15 14:56:08
        _STATISTICS_TAGS: BPS DURATION NUMBER_OF_FRAMES NUMBER_OF_BYTES
Input #1, mov,mp4,m4a,3gp,3g2,mj2, from 'G:\Аниме\[Топ]\Сказание об обручальных кольцах\[DC] Kekkon Yubiwa Monogatari - 06_Telegram.mp4':
  Metadata:
    major_brand     : isom
    minor_version   : 512
    compatible_brands: isomiso2avc1mp41
    encoder         : Lavf60.16.100
  Duration: 00:23:46.98, start: 0.000000, bitrate: 3921 kb/s
  Stream #1:0[0x1](und): Video: h264 (High) (avc1 / 0x31637661), yuv420p(tv, bt709, progressive), 1920x1080 [SAR 1:1 DAR 16:9], 3774 kb/s, 23.98 fps, 23.98 tbr, 24k tbn (default)
      Metadata:
        handler_name    : VideoHandler
        vendor_id       : [0][0][0][0]
        encoder         : Lavc60.31.102 h264_qsv
  Stream #1:1[0x2](und): Audio: aac (HE-AACv2) (mp4a / 0x6134706D), 48000 Hz, stereo, fltp, 144 kb/s (default)
      Metadata:
        handler_name    : SoundHandler
        vendor_id       : [0][0][0][0]
Stream mapping:
  Stream #0:0 (hevc) -> settb:default
  Stream #1:0 (h264) -> settb:default
  psnr:default -> Stream #0:0 (wrapped_avframe)
  Stream #0:1 -> #0:1 (aac (native) -> pcm_s16le (native))
Output #0, null, to 'pipe:':
  Metadata:
    COMPATIBLE_BRANDS: isomiso2avc1mp41
    MAJOR_BRAND     : isom
    MINOR_VERSION   : 512
    encoder         : Lavf61.7.100
  Stream #0:0: Video: wrapped_avframe, yuv420p10le(tv, bt709, progressive), 1920x1080 [SAR 1:1 DAR 16:9], q=2-31, 200 kb/s, 23.98 fps, 23.98 tbn
      Metadata:
        encoder         : Lavc61.19.100 wrapped_avframe
  Stream #0:1: Audio: pcm_s16le, 48000 Hz, stereo, s16, 1536 kb/s (default)
      Metadata:
        HANDLER_NAME    : SoundHandler
        VENDOR_ID       : [0][0][0][0]
        _STATISTICS_TAGS: BPS DURATION NUMBER_OF_FRAMES NUMBER_OF_BYTES
        BPS             : 194595
        DURATION        : 00:23:47.029000000
        NUMBER_OF_FRAMES: 66893
        NUMBER_OF_BYTES : 34711703
        _STATISTICS_WRITING_APP: mkvpropedit v66.0.0 ('Josie') 64-bit
        _STATISTICS_WRITING_DATE_UTC: 2025-06-15 14:56:08
        encoder         : Lavc61.19.100 pcm_s16le
frame=  172 fps=0.0 q=-0.0 size=N/A time=00:00:07.17 bitrate=N/A speed=14.1x    frame=  421 fps=413 q=-0.0 size=N/A time=00:00:17.55 bitrate=N/A speed=17.2x    frame=  683 fps=443 q=-0.0 size=N/A time=00:00:28.48 bitrate=N/A speed=18.5x    frame=  940 fps=459 q=-0.0 size=N/A time=00:00:39.20 bitrate=N/A speed=19.1x    frame= 1218 fps=473 q=-0.0 size=N/A time=00:00:50.80 bitrate=N/A speed=19.7x    frame= 1480 fps=480 q=-0.0 size=N/A time=00:01:01.72 bitrate=N/A speed=  20x    frame= 1763 fps=489 q=-0.0 size=N/A time=00:01:13.53 bitrate=N/A speed=20.4x    frame= 1979 fps=481 q=-0.0 size=N/A time=00:01:22.54 bitrate=N/A speed=20.1x    frame= 2234 fps=483 q=-0.0 size=N/A time=00:01:33.17 bitrate=N/A speed=20.1x    frame= 2472 fps=480 q=-0.0 size=N/A time=00:01:43.10 bitrate=N/A speed=  20x    frame= 2723 fps=481 q=-0.0 size=N/A time=00:01:53.57 bitrate=N/A speed=20.1x    frame= 2903 fps=469 q=-0.0 size=N/A time=00:02:01.07 bitrate=N/A speed=19.6x    frame= 3089 fps=462 q=-0.0 size=N/A time=00:02:08.83 bitrate=N/A speed=19.2x    frame= 3299 fps=458 q=-0.0 size=N/A time=00:02:17.59 bitrate=N/A speed=19.1x    frame= 3538 fps=458 q=-0.0 size=N/A time=00:02:27.56 bitrate=N/A speed=19.1x    frame= 3738 fps=454 q=-0.0 size=N/A time=00:02:35.90 bitrate=N/A speed=18.9x    frame= 3918 fps=447 q=-0.0 size=N/A time=00:02:43.41 bitrate=N/A speed=18.6x    frame= 4111 fps=443 q=-0.0 size=N/A time=00:02:51.46 bitrate=N/A speed=18.5x    frame= 4283 fps=438 q=-0.0 size=N/A time=00:02:58.63 bitrate=N/A speed=18.3x    frame= 4465 fps=433 q=-0.0 size=N/A time=00:03:06.22 bitrate=N/A speed=18.1x    frame= 4688 fps=433 q=-0.0 size=N/A time=00:03:15.52 bitrate=N/A speed=18.1x    frame= 4899 fps=432 q=-0.0 size=N/A time=00:03:24.32 bitrate=N/A speed=  18x    frame= 5115 fps=432 q=-0.0 size=N/A time=00:03:33.33 bitrate=N/A speed=  18x    frame= 5322 fps=430 q=-0.0 size=N/A time=00:03:41.97 bitrate=N/A speed=17.9x    frame= 5575 fps=433 q=-0.0 size=N/A time=00:03:52.52 bitrate=N/A speed=18.1x    frame= 5828 fps=435 q=-0.0 size=N/A time=00:04:03.07 bitrate=N/A speed=18.2x    frame= 6095 fps=438 q=-0.0 size=N/A time=00:04:14.21 bitrate=N/A speed=18.3x    frame= 6343 fps=440 q=-0.0 size=N/A time=00:04:24.55 bitrate=N/A speed=18.3x    frame= 6572 fps=440 q=-0.0 size=N/A time=00:04:34.10 bitrate=N/A speed=18.3x    frame= 6853 fps=443 q=-0.0 size=N/A time=00:04:45.82 bitrate=N/A speed=18.5x    frame= 7095 fps=444 q=-0.0 size=N/A time=00:04:55.92 bitrate=N/A speed=18.5x    frame= 7340 fps=445 q=-0.0 size=N/A time=00:05:06.13 bitrate=N/A speed=18.6x    frame= 7595 fps=447 q=-0.0 size=N/A time=00:05:16.77 bitrate=N/A speed=18.6x    frame= 7841 fps=448 q=-0.0 size=N/A time=00:05:27.03 bitrate=N/A speed=18.7x    frame= 8127 fps=450 q=-0.0 size=N/A time=00:05:38.96 bitrate=N/A speed=18.8x    frame= 8368 fps=451 q=-0.0 size=N/A time=00:05:49.01 bitrate=N/A speed=18.8x    frame= 8636 fps=453 q=-0.0 size=N/A time=00:06:00.19 bitrate=N/A speed=18.9x    frame= 8859 fps=452 q=-0.0 size=N/A time=00:06:09.49 bitrate=N/A speed=18.9x    frame= 9105 fps=453 q=-0.0 size=N/A time=00:06:19.75 bitrate=N/A speed=18.9x    frame= 9312 fps=452 q=-0.0 size=N/A time=00:06:28.38 bitrate=N/A speed=18.8x    frame= 9572 fps=453 q=-0.0 size=N/A time=00:06:39.23 bitrate=N/A speed=18.9x    frame= 9805 fps=453 q=-0.0 size=N/A time=00:06:48.95 bitrate=N/A speed=18.9x    frame=10022 fps=452 q=-0.0 size=N/A time=00:06:58.00 bitrate=N/A speed=18.9x    frame=10253 fps=452 q=-0.0 size=N/A time=00:07:07.63 bitrate=N/A speed=18.9x    frame=10479 fps=452 q=-0.0 size=N/A time=00:07:17.06 bitrate=N/A speed=18.8x    frame=10720 fps=452 q=-0.0 size=N/A time=00:07:27.11 bitrate=N/A speed=18.9x    frame=10961 fps=452 q=-0.0 size=N/A time=00:07:37.16 bitrate=N/A speed=18.9x    frame=11187 fps=452 q=-0.0 size=N/A time=00:07:46.59 bitrate=N/A speed=18.9x    frame=11414 fps=452 q=-0.0 size=N/A time=00:07:56.05 bitrate=N/A speed=18.9x    frame=11666 fps=453 q=-0.0 size=N/A time=00:08:06.56 bitrate=N/A speed=18.9x    frame=11912 fps=453 q=-0.0 size=N/A time=00:08:16.82 bitrate=N/A speed=18.9x    frame=12087 fps=451 q=-0.0 size=N/A time=00:08:24.12 bitrate=N/A speed=18.8x    frame=12300 fps=450 q=-0.0 size=N/A time=00:08:33.01 bitrate=N/A speed=18.8x    frame=12510 fps=449 q=-0.0 size=N/A time=00:08:41.77 bitrate=N/A speed=18.7x    frame=12746 fps=450 q=-0.0 size=N/A time=00:08:51.61 bitrate=N/A speed=18.8x    frame=13005 fps=450 q=-0.0 size=N/A time=00:09:02.41 bitrate=N/A speed=18.8x    frame=13231 fps=450 q=-0.0 size=N/A time=00:09:11.84 bitrate=N/A speed=18.8x    frame=13499 fps=451 q=-0.0 size=N/A time=00:09:23.02 bitrate=N/A speed=18.8x    frame=13740 fps=452 q=-0.0 size=N/A time=00:09:33.07 bitrate=N/A speed=18.8x    frame=14007 fps=453 q=-0.0 size=N/A time=00:09:44.20 bitrate=N/A speed=18.9x    frame=14272 fps=454 q=-0.0 size=N/A time=00:09:55.26 bitrate=N/A speed=18.9x    frame=14502 fps=454 q=-0.0 size=N/A time=00:10:04.85 bitrate=N/A speed=18.9x    frame=14707 fps=453 q=-0.0 size=N/A time=00:10:13.40 bitrate=N/A speed=18.9x    frame=14893 fps=451 q=-0.0 size=N/A time=00:10:21.16 bitrate=N/A speed=18.8x    frame=15092 fps=450 q=-0.0 size=N/A time=00:10:29.46 bitrate=N/A speed=18.8x    frame=15281 fps=449 q=-0.0 size=N/A time=00:10:37.34 bitrate=N/A speed=18.7x    frame=15463 fps=448 q=-0.0 size=N/A time=00:10:44.93 bitrate=N/A speed=18.7x    frame=15690 fps=447 q=-0.0 size=N/A time=00:10:54.40 bitrate=N/A speed=18.7x    frame=15931 fps=448 q=-0.0 size=N/A time=00:11:04.45 bitrate=N/A speed=18.7x    frame=16177 fps=448 q=-0.0 size=N/A time=00:11:14.71 bitrate=N/A speed=18.7x    frame=16447 fps=449 q=-0.0 size=N/A time=00:11:25.97 bitrate=N/A speed=18.7x    frame=16703 fps=450 q=-0.0 size=N/A time=00:11:36.65 bitrate=N/A speed=18.8x    frame=16940 fps=450 q=-0.0 size=N/A time=00:11:46.53 bitrate=N/A speed=18.8x    frame=17203 fps=451 q=-0.0 size=N/A time=00:11:57.50 bitrate=N/A speed=18.8x    frame=17459 fps=451 q=-0.0 size=N/A time=00:12:08.18 bitrate=N/A speed=18.8x    frame=17660 fps=451 q=-0.0 size=N/A time=00:12:16.56 bitrate=N/A speed=18.8x    frame=17869 fps=450 q=-0.0 size=N/A time=00:12:25.28 bitrate=N/A speed=18.8x    frame=18119 fps=450 q=-0.0 size=N/A time=00:12:35.71 bitrate=N/A speed=18.8x    frame=18391 fps=451 q=-0.0 size=N/A time=00:12:47.05 bitrate=N/A speed=18.8x    frame=18636 fps=452 q=-0.0 size=N/A time=00:12:57.27 bitrate=N/A speed=18.8x    frame=18876 fps=452 q=-0.0 size=N/A time=00:13:07.28 bitrate=N/A speed=18.8x    frame=19124 fps=452 q=-0.0 size=N/A time=00:13:17.63 bitrate=N/A speed=18.9x    frame=19369 fps=453 q=-0.0 size=N/A time=00:13:27.84 bitrate=N/A speed=18.9x    frame=19596 fps=452 q=-0.0 size=N/A time=00:13:37.31 bitrate=N/A speed=18.9x    frame=19834 fps=452 q=-0.0 size=N/A time=00:13:47.24 bitrate=N/A speed=18.9x    frame=20085 fps=453 q=-0.0 size=N/A time=00:13:57.71 bitrate=N/A speed=18.9x    frame=20359 fps=454 q=-0.0 size=N/A time=00:14:09.13 bitrate=N/A speed=18.9x    frame=20620 fps=454 q=-0.0 size=N/A time=00:14:20.02 bitrate=N/A speed=  19x    frame=20886 fps=455 q=-0.0 size=N/A time=00:14:31.12 bitrate=N/A speed=  19x    frame=21109 fps=455 q=-0.0 size=N/A time=00:14:40.42 bitrate=N/A speed=  19x    frame=21320 fps=454 q=-0.0 size=N/A time=00:14:49.22 bitrate=N/A speed=  19x    frame=21546 fps=454 q=-0.0 size=N/A time=00:14:58.64 bitrate=N/A speed=18.9x    frame=21806 fps=455 q=-0.0 size=N/A time=00:15:09.49 bitrate=N/A speed=  19x    frame=22043 fps=455 q=-0.0 size=N/A time=00:15:19.37 bitrate=N/A speed=  19x    frame=22254 fps=454 q=-0.0 size=N/A time=00:15:28.17 bitrate=N/A speed=18.9x    frame=22530 fps=455 q=-0.0 size=N/A time=00:15:39.68 bitrate=N/A speed=  19x    frame=22762 fps=455 q=-0.0 size=N/A time=00:15:49.36 bitrate=N/A speed=  19x    frame=22996 fps=455 q=-0.0 size=N/A time=00:15:59.12 bitrate=N/A speed=  19x    frame=23227 fps=455 q=-0.0 size=N/A time=00:16:08.75 bitrate=N/A speed=  19x    frame=23469 fps=455 q=-0.0 size=N/A time=00:16:18.85 bitrate=N/A speed=  19x    frame=23678 fps=455 q=-0.0 size=N/A time=00:16:27.56 bitrate=N/A speed=  19x    frame=23921 fps=455 q=-0.0 size=N/A time=00:16:37.70 bitrate=N/A speed=  19x    frame=24176 fps=455 q=-0.0 size=N/A time=00:16:48.34 bitrate=N/A speed=  19x    frame=24416 fps=455 q=-0.0 size=N/A time=00:16:58.35 bitrate=N/A speed=  19x    frame=24694 fps=456 q=-0.0 size=N/A time=00:17:09.94 bitrate=N/A speed=  19x    frame=24954 fps=457 q=-0.0 size=N/A time=00:17:20.78 bitrate=N/A speed=  19x    frame=25212 fps=457 q=-0.0 size=N/A time=00:17:31.55 bitrate=N/A speed=19.1x    frame=25484 fps=458 q=-0.0 size=N/A time=00:17:42.89 bitrate=N/A speed=19.1x    frame=25735 fps=458 q=-0.0 size=N/A time=00:17:53.36 bitrate=N/A speed=19.1x    frame=25991 fps=458 q=-0.0 size=N/A time=00:18:04.04 bitrate=N/A speed=19.1x    frame=26242 fps=459 q=-0.0 size=N/A time=00:18:14.51 bitrate=N/A speed=19.1x    frame=26502 fps=459 q=-0.0 size=N/A time=00:18:25.35 bitrate=N/A speed=19.1x    frame=26742 fps=459 q=-0.0 size=N/A time=00:18:35.36 bitrate=N/A speed=19.1x    frame=26980 fps=459 q=-0.0 size=N/A time=00:18:45.29 bitrate=N/A speed=19.1x    frame=27182 fps=458 q=-0.0 size=N/A time=00:18:53.71 bitrate=N/A speed=19.1x    frame=27427 fps=459 q=-0.0 size=N/A time=00:19:03.93 bitrate=N/A speed=19.1x    frame=27679 fps=459 q=-0.0 size=N/A time=00:19:14.44 bitrate=N/A speed=19.1x    frame=27910 fps=459 q=-0.0 size=N/A time=00:19:24.07 bitrate=N/A speed=19.1x    frame=28159 fps=459 q=-0.0 size=N/A time=00:19:34.46 bitrate=N/A speed=19.1x    frame=28374 fps=459 q=-0.0 size=N/A time=00:19:43.43 bitrate=N/A speed=19.1x    frame=28616 fps=459 q=-0.0 size=N/A time=00:19:53.52 bitrate=N/A speed=19.1x    frame=28881 fps=459 q=-0.0 size=N/A time=00:20:04.57 bitrate=N/A speed=19.1x    frame=29143 fps=459 q=-0.0 size=N/A time=00:20:15.50 bitrate=N/A speed=19.2x    frame=29387 fps=460 q=-0.0 size=N/A time=00:20:25.68 bitrate=N/A speed=19.2x    frame=29665 fps=460 q=-0.0 size=N/A time=00:20:37.27 bitrate=N/A speed=19.2x    frame=29932 fps=461 q=-0.0 size=N/A time=00:20:48.41 bitrate=N/A speed=19.2x    frame=30197 fps=461 q=-0.0 size=N/A time=00:20:59.46 bitrate=N/A speed=19.2x    frame=30406 fps=461 q=-0.0 size=N/A time=00:21:08.18 bitrate=N/A speed=19.2x    frame=30633 fps=460 q=-0.0 size=N/A time=00:21:17.65 bitrate=N/A speed=19.2x    frame=30899 fps=461 q=-0.0 size=N/A time=00:21:28.74 bitrate=N/A speed=19.2x    frame=31141 fps=461 q=-0.0 size=N/A time=00:21:38.83 bitrate=N/A speed=19.2x    frame=31327 fps=460 q=-0.0 size=N/A time=00:21:46.59 bitrate=N/A speed=19.2x    frame=31580 fps=460 q=-0.0 size=N/A time=00:21:57.14 bitrate=N/A speed=19.2x    frame=31811 fps=460 q=-0.0 size=N/A time=00:22:06.78 bitrate=N/A speed=19.2x    frame=32029 fps=460 q=-0.0 size=N/A time=00:22:15.87 bitrate=N/A speed=19.2x    frame=32219 fps=459 q=-0.0 size=N/A time=00:22:23.80 bitrate=N/A speed=19.2x    frame=32419 fps=459 q=-0.0 size=N/A time=00:22:32.14 bitrate=N/A speed=19.1x    frame=32629 fps=458 q=-0.0 size=N/A time=00:22:40.90 bitrate=N/A speed=19.1x    frame=32852 fps=458 q=-0.0 size=N/A time=00:22:50.20 bitrate=N/A speed=19.1x    frame=33080 fps=458 q=-0.0 size=N/A time=00:22:59.71 bitrate=N/A speed=19.1x    frame=33290 fps=458 q=-0.0 size=N/A time=00:23:08.47 bitrate=N/A speed=19.1x    frame=33510 fps=458 q=-0.0 size=N/A time=00:23:17.64 bitrate=N/A speed=19.1x    frame=33702 fps=457 q=-0.0 size=N/A time=00:23:25.65 bitrate=N/A speed=19.1x    frame=33887 fps=456 q=-0.0 size=N/A time=00:23:33.37 bitrate=N/A speed=  19x    frame=34087 fps=456 q=-0.0 size=N/A time=00:23:41.71 bitrate=N/A speed=  19x    [Parsed_psnr_10 @ 00000141c790a980] PSNR y:48.343927 u:50.368950 v:50.337546 average:48.916228 min:42.921793 max:inf
[out#0/null @ 00000141c561ca80] video:14697KiB audio:267572KiB subtitle:0KiB other streams:0KiB global headers:0KiB muxing overhead: unknown
frame=34203 fps=456 q=-0.0 Lsize=N/A time=00:23:46.55 bitrate=N/A speed=  19x    
